# xmcd CD database file
#
# Track frame offsets:
#	150
#	22256
#	43600
#	63948
#	92099
#	113724
#	133748
#	156253
#	177795
#	198468
#	223379
#	243603
#	264753
#
# Disc length: 3802 seconds
#
# Revision: 10
# Processed by: cddbd v1.4PL0 Copyright (c) Steve Scherf et al.
# Submitted via: CDex 1.50
#
DISCID=bd0ed80d
DTITLE=Justin Timberlake - Justified
DYEAR=2003
DGENRE=Pop
TTITLE0=Senorita
TTITLE1=Like I Love You [featuring Clipse]
TTITLE2=[Uh Oh] What You Got
TTITLE3=Take It From Here
TTITLE4=Cry Me A River
TTITLE5=Rock Your Body
TTITLE6=Nothin' Else
TTITLE7=Last Night
TTITLE8=Still On My Brain
TTITLE9=[And She Said] Take Me Now [featuring Janet Jackson]
TTITLE10=Right For Me
TTITLE11=Let's Take A Ride
TTITLE12=Never Again
EXTD=YEAR: 2003
EXTT0=
EXTT1=
EXTT2=
EXTT3=
EXTT4=
EXTT5=
EXTT6=
EXTT7=
EXTT8=
EXTT9=
EXTT10=
EXTT11=
EXTT12=
PLAYORDER=
